# xmcd
#
# Track frame offsets: 
#        150
#        17788
#        32040
#        51445
#        69399
#        84171
#        100679
#        119554
#        136568
#        152232
#        167392
#        187556
#        203059
#
# Disc length: 2967 seconds
#
# Revision: 0
# Processed by: cddbd v1.5PL3 Copyright (c) Steve Scherf et al.
# Submitted via: ExactAudioCopy v0.95a3
#
DISCID=980b950d
DTITLE=Daniel Lee Martin - All That I Am
DYEAR=2003
DGENRE=Country
TTITLE0=Come Back To The Way It Was
TTITLE1=Homespun Love
TTITLE2=I Can't Let Go
TTITLE3=All That I Am
TTITLE4=Freedom's Finally Mine
TTITLE5=Tangled Up In Love
TTITLE6=If I Was An Angel
TTITLE7=The Closest Thing
TTITLE8=Lucy Kept Hangin' On
TTITLE9=Until You
TTITLE10=Sometimes Angel Can't Fly
TTITLE11=Purely Speculation
TTITLE12=A Guitar With No Strings
EXTD=
EXTT0=
EXTT1=
EXTT2=
EXTT3=
EXTT4=
EXTT5=
EXTT6=
EXTT7=
EXTT8=
EXTT9=
EXTT10=
EXTT11=
EXTT12=
PLAYORDER=
